# xmcd
#
# Track frame offsets:
# 150
# 16255
# 33816
# 52647
# 71690
# 87778
# 108694
# 126480
# 143567
# 163482
# 182480
# 199350
# 225506
# 243952
#
# Disc length: 3484 seconds
#
#
# Revision: 0
# Processed by: cddbd v1.5.2PL0 Copyright (c) Steve Scherf et al.
# Submitted via: FreeRIP 2.951 
#
DISCID=b70d9a0e
DTITLE=Rick e Renner - Essencial
DYEAR=1900
DGENRE=
TTITLE0=Ela é de mais
TTITLE1=Coisa de Deus
TTITLE2=Cara de Pau
TTITLE3=Eu  mereço
TTITLE4=Muleca
TTITLE5=A força  do  amor-Acustico
TTITLE6=Negativo Positivo
TTITLE7=Nos  bares da cidade- acustico
TTITLE8=Filha- Acustico
TTITLE9=Nunca  amei  assim
TTITLE10=Fim  de  seman
TTITLE11=So  penso em  você
TTITLE12=Credencial
TTITLE13=Nóis  tropica mais  não  cai
EXTD=
EXTT0=
EXTT1=
EXTT2=
EXTT3=
EXTT4=
EXTT5=
EXTT6=
EXTT7=
EXTT8=
EXTT9=
EXTT10=
EXTT11=
EXTT12=
EXTT13=
PLAYORDER=
